<?xml version="1.0" encoding="UTF-8"?>
<svg id="Layer_1" data-name="Layer 1" xmlns="http://www.w3.org/2000/svg" viewBox="0 0 1531.84 1386">
  <path d="M765.92,1386c-126.52,0-250.33-34.42-358.04-99.54-104.64-63.26-191.03-153.32-249.84-260.43-2.66-4.84-.89-10.92,3.95-13.58,4.84-2.66,10.92-.89,13.58,3.95,57.11,104.03,141.02,191.49,242.65,252.94,104.59,63.23,224.82,96.65,347.69,96.65,57.9,0,115.52-7.77,171.26-23.09,53.39-14.68,105.42-36.37,154.62-64.47,94.29-53.85,178.17-131.42,242.57-224.34,38.02-54.86,52.37-96.57,40.39-117.43-5.87-10.22-22.48-21.65-68.3-18.1-391.02,30.33-600.05,13.98-738.37,3.16-67.15-5.25-115.67-9.05-155.96-4.36-32.18,3.75-54.5,6.91-109.44,16.84-48.89,8.83-119.72,13.3-146.77,13.73-6.74.11-13.03.26-18.58.41-16.85.43-29.03.73-37.86-.75-12.66-2.12-19.67-8.54-20.83-19.09-.66-6.01.74-11.17,4.17-15.33,8.06-9.77,25.02-11.17,55.81-13.7,3.25-.27,6.33-.55,9.25-.85-13.41-.71-27.43-1.35-39.25-1.88-7.61-.34-15.18-.69-22.51-1.03-35.4-1.68-51.81-3.42-60.43-13.04-3.96-4.41-5.75-10.11-5.33-16.95.69-11.22,7.96-18.53,21.61-21.71,10.31-2.41,25.02-2.9,45.4-2.9.24,0,.48,0,.71,0,17.82,0,32.41-.18,44.38-.48-21.7-3.06-48.19-6.19-76.13-8.75-35.83-3.28-57.49-7.07-56.3-31.96.37-7.66,3.93-17.59,18.83-21.44,8.14-2.11,19.68-2.58,39.84-1.62,38.26,1.82,73.44,2.78,99.66,2.85-14.07-2.97-29.04-5.86-40.77-8.12-7.16-1.38-14.19-2.74-20.84-4.05-13.87-2.74-23.95-5.28-31.36-9.44-13.33-7.49-14.6-18.56-13.32-26.53,1.3-8.05,6.88-17.89,26.14-19.09,10.55-.65,24.02,1.09,39.61,3.12l5.45.71c10.3,1.32,21.05,2.86,31.44,4.35,20.71,2.97,40.27,5.77,56.31,6.94,17.44,1.28,24.36.02,26.88-.8-.34-8.38-4.89-17.08-9.69-26.25-7.99-15.27-17.04-32.57-7.06-51.92,2.4-4.65,6.43-7.61,11.36-8.34,13.45-1.97,28.45,12.86,58.44,43.91,15.43,15.98,32.93,34.09,48.86,46.68,9.89,7.81,37.67,23.4,72.05,26.46,185.36,16.49,400.62-11.81,557.81-32.48,107.86-14.18,193.04-25.38,236.08-18.85,48.53,7.36,148.89,16.12,176.07,15.36,6.83-.19,13.17-.3,18.76-.41,16.24-.3,34.61-.63,38.15-3.33.01-.09.03-.21.04-.37.02-.27.02-.48.01-.62-4.13-3-25.09-3.81-42.01-4.47-18.01-.7-33.93-2.22-46.04-4.4-17.35-3.13-22.3-6.73-24.86-9.83-2.21-2.68-3.15-5.97-2.63-9.26,1.29-8.32,10.4-10.04,16.42-11.18,5.14-.97,12.35-1.99,22.06-3.11,17.68-2.04,41.19-4.13,63.92-6.15,7.57-.67,15.1-1.34,22.38-2.01,15.87-1.45,42.43-3.87,46.17-8.42.22-.27.28-1.2.16-2.38-.08-.81-.21-2.04-6.34-3.19-8.53-1.6-22.62-1.39-41.14-.58-30.27,1.32-54.63,1.87-72.4,1.62-10.78-.15-18.89-.58-24.8-1.32-5.09-.64-17.01-2.13-17.94-12.23-.93-10.24,10.57-13.55,18.96-15.96,7.61-2.19,18.36-4.68,31.94-7.41,25.88-5.2,59.22-10.69,91.49-15.06,12.13-1.64,29.03-4.26,35.73-7.98,2.05-1.14,2.21-1.23,1.89-4.74-.14-1.5-.19-2.06-3.99-2.87-7.64-1.63-22.12-.6-33.89.47-36.1,3.29-72.09,5.9-98.74,7.16-16.11.76-28.81,1.04-37.76.82-5.28-.13-9.29-.43-12.26-.91-9.59-1.57-12.05-6.7-12.41-10.73-.87-9.58,9.26-13.95,13.59-15.82,5.03-2.17,12.1-4.56,21.62-7.31,17.05-4.93,39.11-10.19,60.45-15.27,7.07-1.69,14-3.34,20.56-4.94,9.26-2.25,19.61-4.95,25.1-8.36,3.7-2.3,3.62-3.59,3.11-6.06-.09-.42-.18-.56-.18-.56-.01-.01-1.86-1.79-11.34-1.35-8.39.39-19.26,2.29-31.84,4.48l-5.45.95c-10.09,1.74-20.69,3.73-30.94,5.66-54.85,10.31-86.52,15.65-99.83,5.59-3.79-2.86-6.1-6.97-6.52-11.58-1.31-14.41,4.83-27.5,10.25-39.06,6.05-12.9,9.85-21.81,7.17-30.11-2.22,1.48-5.87,4.37-11.54,9.99-7.56,7.5-16.48,17.58-25.93,28.26-15.14,17.1-32.3,36.49-48.69,50.64-11.95,10.32-42.51,29.14-81.28,34.26-122.56,16.16-261.47,34.48-412.51,32.46-173.68-2.32-329.29-31.6-475.73-89.49l-.48-.19c-10.58-4.18-26.56-10.5-41.55-21.04-18.45-12.98-30.97-29.31-37.2-48.55-12.84-39.61,1.02-91.65,41.2-154.67,58.3-91.45,141.76-167.53,241.35-220.02C535.94,27.82,650,0,765.92,0c133.01,0,262.22,37.79,373.67,109.27,108.51,69.6,195.35,167.66,251.14,283.58,2.4,4.98.3,10.95-4.67,13.35-4.98,2.39-10.95.3-13.35-4.67-54.18-112.58-138.52-207.82-243.91-275.42-108.22-69.42-233.69-106.11-362.87-106.11-112.69,0-223.52,27.02-320.5,78.13-96.52,50.87-177.37,124.55-233.81,213.07-36.81,57.75-49.95,104.09-39.04,137.76,11.39,35.14,47.61,49.46,67.08,57.15l.48.19c144.14,56.99,297.43,85.8,468.64,88.1,149.59,2.01,287.74-16.22,409.63-32.29,34.15-4.5,61.26-21.31,70.82-29.56,15.37-13.27,32.06-32.13,46.79-48.76,28.61-32.32,42.96-47.79,56.48-46.41,4.95.51,9.11,3.29,11.71,7.83,10.81,18.9,2.52,36.58-4.8,52.18-4.39,9.36-8.56,18.25-8.54,26.64,2.56.71,9.52,1.67,26.89-.37,15.97-1.87,35.39-5.52,55.95-9.38,10.32-1.94,20.99-3.94,31.23-5.71l5.42-.94c15.49-2.7,28.85-5.02,39.43-4.84,19.29.36,25.3,9.95,26.95,17.93,1.63,7.9.84,19.02-12.15,27.08-7.22,4.48-17.18,7.46-30.92,10.8-6.59,1.6-13.55,3.26-20.65,4.96-11.62,2.77-26.46,6.31-40.38,9.89,26.19-1.22,61.29-3.71,99.44-7.18,20.1-1.83,31.65-1.86,39.87-.12,15.05,3.2,19.04,12.97,19.74,20.61,2.28,24.81-19.21,29.54-54.85,34.37-27.8,3.77-54.13,8.05-75.68,12.05,12.07-.23,26.83-.69,44.85-1.48,20.47-.89,35.26-1.05,45.71.91,13.78,2.59,21.36,9.57,22.54,20.75.72,6.81-.83,12.58-4.59,17.16-8.19,9.98-24.52,12.43-59.81,15.65-7.3.67-14.85,1.34-22.43,2.01-11.8,1.05-25.78,2.29-39.15,3.59,2.94.17,6.03.32,9.28.44,30.87,1.19,47.88,1.85,56.35,11.26,3.61,4.01,5.24,9.1,4.84,15.13-.7,10.59-7.43,17.31-19.98,19.98-8.76,1.86-20.94,2.08-37.8,2.39-5.55.1-11.84.22-18.57.4-30.13.83-134.35-8.72-179.62-15.58-40.24-6.1-124.19,4.94-230.47,18.91-124.78,16.4-285.98,37.59-440.58,37.59-41.28,0-82.08-1.51-121.61-5.03-39-3.47-70.32-20.92-82.68-30.69-16.99-13.42-34.97-32.05-50.85-48.48-9.9-10.25-19.26-19.94-27.14-27.1-5.91-5.37-9.69-8.1-11.97-9.48-2.32,8.41,1.87,17.14,8.47,29.77,5.92,11.31,12.62,24.12,11.94,38.58-.22,4.62-2.35,8.83-6.01,11.85-12.86,10.62-44.74,6.67-99.98-1.25-10.32-1.48-21-3.01-31.15-4.31l-5.48-.71c-12.66-1.65-23.6-3.07-32-3.09-.08,0-.15,0-.23,0-9.28,0-11.03,1.83-11.04,1.84h0s-.08.15-.15.56c-.4,2.49-.42,3.78,3.37,5.92,5.64,3.17,16.09,5.41,25.44,7.26,6.62,1.31,13.62,2.66,20.75,4.04,21.53,4.16,43.8,8.45,61.06,12.63,9.63,2.33,16.8,4.42,21.92,6.37,4.4,1.68,14.72,5.6,14.26,15.21-.19,4.04-2.42,9.28-11.93,11.26-2.95.61-6.95,1.09-12.21,1.45-8.93.61-21.63.89-37.76.83-26.68-.1-62.74-1.14-98.95-2.86-11.8-.56-26.32-.95-33.88,1-3.76.97-3.79,1.54-3.86,3.04-.17,3.53,0,3.61,2.1,4.66,6.86,3.43,23.86,5.31,36.05,6.42,32.43,2.97,65.98,7,92.06,11.07,13.69,2.13,24.54,4.16,32.24,6.02,8.49,2.05,20.13,4.86,19.64,15.12-.48,10.14-12.33,12.15-17.39,13-5.87,1-13.96,1.78-24.71,2.4-17.64,1.01-41.83,1.53-71.91,1.53-.23,0-.47,0-.7,0-18.44,0-32.44.41-40.86,2.37-6.07,1.42-6.15,2.65-6.2,3.46-.07,1.18.03,2.11.26,2.37,3.94,4.39,30.58,5.65,46.49,6.41,7.31.35,14.87.69,22.46,1.03,22.8,1.03,46.37,2.09,64.12,3.36,9.74.7,16.99,1.4,22.17,2.15,6.07.88,15.24,2.2,16.89,10.46.65,3.26-.14,6.59-2.23,9.37-2.42,3.21-7.21,7.02-24.41,10.9-12.01,2.71-27.84,4.92-45.8,6.4-16.88,1.39-37.79,3.11-41.78,6.29,0,.15,0,.35.04.62.02.16.04.28.06.37,3.65,2.54,22.02,2.08,38.25,1.67,5.59-.14,11.93-.3,18.77-.41,31.04-.49,100.01-5.55,143.53-13.41,55.47-10.02,78.06-13.22,110.68-17.02,42.22-4.92,91.55-1.06,159.83,4.28,137.7,10.77,345.8,27.04,735.26-3.16,45.15-3.5,74.49,5.95,87.2,28.08,16.5,28.74,2.6,75.44-41.3,138.78-66.09,95.35-152.22,175-249.09,230.32-50.66,28.93-104.23,51.27-159.24,66.38-57.46,15.79-116.87,23.8-176.56,23.8ZM98.52,925.4h0,0Z"/>
</svg>